<svg xmlns="http://www.w3.org/2000/svg"  viewBox="0 0 467 493">

            <g id="about">
                <path d="M237.894517,342.741726 C234.221982,339.018142 231.767335,336.267304 233.21951,334.5901 C235.933242,331.455844 256.149569,339.437248 260.999426,346.566115 C265.849284,353.694983 267.442881,376.163651 263.281065,377.223624 C260.209257,378.005982 257.425085,370.732871 253.352652,362.858704 C249.212978,368.361256 241.59235,375.307912 230,381.891288 C208.161988,394.293247 169.993557,401.103021 148.234319,401.103021 C107.301441,401.103021 78.9808274,386.211753 67.3051161,375.992777 C66.6232459,383.229183 66.7489272,389.627262 64.1754505,389.975719 C60.6996855,390.446349 55.9440032,371.557924 57.43546,364.675915 C58.9269168,357.793906 70.8818586,346.951871 73.8956956,348.494992 C75.5617149,349.348015 74.4212779,352.344106 72.6849457,356.492181 C73.32685,356.526647 74.0326298,356.585078 74.8086399,356.67099 C95.5884982,358.971521 126.610488,369.792262 150.806804,367.714999 C175.00312,365.637736 200.761323,353.84448 224.67284,346.718509 C229.945043,345.147318 234.390623,343.708087 237.894517,342.741726 Z M241.962974,346.879213 C223.88491,355.488086 162.896386,375.294646 148.125813,375.294646 C133.491312,375.294646 85.5298618,366.378279 70.6672433,361.40969 C69.8286998,363.576718 69.0311049,365.901815 68.4712793,368.296737 C68.4104968,368.556763 68.3523832,368.818086 68.2967723,369.080456 C79.7011507,375.899532 105.078158,394.802441 148.234319,394.802441 C172.820301,394.802441 196.433236,390.77107 219.776677,378.850671 C234.327129,371.420438 244.351145,362.548703 250.249256,357.307105 C249.677736,356.37805 249.082354,355.46554 248.460389,354.582441 C246.474473,351.76273 244.176526,349.190029 241.962974,346.879213 L241.962974,346.879213 Z M53.3017398,107.726896 C46.3478651,69.293902 78.7078587,25.1548923 78.7078587,25.1548923 C78.7078587,25.1548923 111.159836,8.8778656 193.206373,1.22463951 C275.252911,-6.42858658 360.851525,29.4386744 402.690646,50.8597424 C441.717413,70.8409226 460.861995,110.994045 465.802418,141.494426 C468.355258,157.254738 462.624618,183.547471 456.489441,205.279812 C454.38944,229.682998 446.735786,255.625891 433.567851,283.638906 C449.149428,285.880378 457.98212,302.775841 457.98212,318.967794 C457.98212,336.729427 401.014769,373.346191 383.241646,373.346191 C382.077063,373.346191 381.109658,373.188977 380.318591,372.890153 C361.554842,399.854838 343.97079,420.680599 333.834128,429.339941 C304.147245,454.70025 284.527112,475.909557 229.334561,487.121075 C79.6426167,517.52869 11.2632425,426.104821 0.579361073,302.2496 C-3.855465,250.837913 17.5005586,166.93901 53.3017398,107.726896 L53.3017398,107.726896 Z M87.1035652,87.3465883 C40.5827207,140.066356 10.5392003,242.217157 15.5426978,300.221291 C25.5504796,416.23868 89.602656,501.877045 229.821763,473.393691 C281.521608,462.891663 299.900136,443.024528 327.708367,419.269075 C337.203559,411.157716 354.470883,386.296835 372.04722,361.038534 C372.788227,361.318448 376.29032,363.112414 377.381205,363.112414 C394.029605,363.112414 441.586728,333.108617 441.586728,316.470979 C441.586728,301.303689 426.04924,295.067871 411.4537,292.968243 C422.112263,270.293583 433.19488,244.544143 438.454941,221.973528 C437.435099,214.442855 436.703193,204.139751 436.703193,190.077537 C436.703193,174.176243 363.83344,163.305448 355.764984,133.607043 C337.151597,65.0948213 147.862274,75.7270847 105.418132,81.770929 C98.25826,82.7904607 92.2181744,84.7872489 87.1035652,87.3465883 L87.1035652,87.3465883 Z M234.769293,148.9997 C241.515586,146.384081 266.447634,171.578167 270.448204,175.815433 C274.448774,180.0527 267.527519,183.221116 267.527519,183.221116 C267.527519,183.221116 229.045082,163.666183 227.200542,161.413728 C225.356003,159.161273 228.023,151.615319 234.769293,148.9997 Z M83.2825099,157.13652 C88.4745313,159.149529 90.5270818,164.956978 89.1075041,166.690492 C87.6879263,168.424007 58.0714188,183.473698 58.0714188,183.473698 C58.0714188,183.473698 52.7447446,181.03525 55.8236275,177.774203 C58.9025103,174.513156 78.0904885,155.123511 83.2825099,157.13652 Z M64.7856902,263.297124 C57.811343,261.814681 54.7682022,248.330617 57.988645,233.179625 C61.2090878,218.028633 69.473598,206.948085 76.4479452,208.430528 C83.4222923,209.912971 86.4654331,223.397035 83.2449903,238.548027 C80.0245475,253.699019 71.7600373,264.779567 64.7856902,263.297124 Z M226.216551,262.384631 C218.351884,259.829246 216.458252,243.963706 221.987004,226.947955 C227.515757,209.932205 238.373268,198.209762 246.237935,200.765148 C254.102602,203.320533 255.996234,219.186073 250.467482,236.201823 C244.938729,253.217574 234.081218,264.940016 226.216551,262.384631 Z M141.33449,454.39142 C134.96437,451.390074 123.446071,432.512353 126.959266,430.477739 C130.472461,428.443124 139.141987,438.662747 148.085445,443.055129 C157.028903,447.447512 171.938733,443.411098 171.615424,446.903648 C171.292115,450.396198 147.704609,457.392766 141.33449,454.39142 Z M151.658704,212.427363 C141.58382,230.454624 113.517492,281.09863 113.517492,285.825248 C113.517492,289.368224 126.906141,303.882784 137.214265,314.532721 C133.422462,321.069916 130.643527,325.159484 129.625474,325.159484 C124.554159,325.159484 100.79141,294.504107 100.79141,290.757501 C100.79141,287.010895 144.110471,209.756669 144.110471,209.756669 L151.658704,212.427363 L151.658704,212.427363 Z" id="Combined-Shape"></path>
            </g>
</svg>
